<svg width="20" height="30" viewBox="0 0 20 30" fill="none" xmlns="http://www.w3.org/2000/svg">
<path d="M14.9997 0H4.28544C3.10197 0 2.14258 0.95939 2.14258 2.14286V4.28571C2.14258 5.46918 3.10197 6.42857 4.28544 6.42857H14.9997C16.1832 6.42857 17.1426 5.46918 17.1426 4.28571V2.14286C17.1426 0.95939 16.1832 0 14.9997 0Z" fill="black" fill-opacity="0.8"/>
<path d="M16.8536 8.19635C16.8321 8.18564 16.8 8.18564 16.7786 8.17493C16.2224 8.43704 15.6149 8.57244 15 8.57136H4.28571C3.67083 8.57244 3.06336 8.43704 2.50714 8.17493C2.48571 8.18564 2.45357 8.18564 2.43214 8.19635C1.73726 8.37068 1.12054 8.77216 0.679899 9.33703C0.239258 9.90191 -4.10273e-05 10.5978 5.27602e-09 11.3142V26.7856C0.00254367 27.6373 0.342008 28.4534 0.944253 29.0557C1.5465 29.6579 2.36259 29.9974 3.21429 29.9999H16.0714C16.9231 29.9974 17.7392 29.6579 18.3415 29.0557C18.9437 28.4534 19.2832 27.6373 19.2857 26.7856V11.3142C19.2858 10.5978 19.0465 9.90191 18.6058 9.33703C18.1652 8.77216 17.5485 8.37068 16.8536 8.19635ZM12.8571 20.3571H10.7143V22.4999C10.7143 22.7841 10.6014 23.0566 10.4005 23.2575C10.1995 23.4585 9.92702 23.5714 9.64286 23.5714C9.3587 23.5714 9.08618 23.4585 8.88524 23.2575C8.68431 23.0566 8.57143 22.7841 8.57143 22.4999V20.3571H6.42857C6.14441 20.3571 5.87189 20.2442 5.67096 20.0433C5.47003 19.8423 5.35714 19.5698 5.35714 19.2856C5.35714 19.0015 5.47003 18.729 5.67096 18.528C5.87189 18.3271 6.14441 18.2142 6.42857 18.2142H8.57143V16.0714C8.57143 15.7872 8.68431 15.5147 8.88524 15.3137C9.08618 15.1128 9.3587 14.9999 9.64286 14.9999C9.92702 14.9999 10.1995 15.1128 10.4005 15.3137C10.6014 15.5147 10.7143 15.7872 10.7143 16.0714V18.2142H12.8571C13.1413 18.2142 13.4138 18.3271 13.6148 18.528C13.8157 18.729 13.9286 19.0015 13.9286 19.2856C13.9286 19.5698 13.8157 19.8423 13.6148 20.0433C13.4138 20.2442 13.1413 20.3571 12.8571 20.3571Z" fill="black" fill-opacity="0.8"/>
</svg>
