<svg width="25" height="25" viewBox="0 0 25 25" fill="none" xmlns="http://www.w3.org/2000/svg">
<path d="M0 7.5V6.25C0 4.18208 1.74009 2.5 3.87931 2.5H5.17241V0H7.75862V2.5H11.2069V0H13.7931V2.5H17.2414V0H19.8276V2.5H21.1207C23.2599 2.5 25 4.18208 25 6.25V7.5H0ZM25 10V21.25C25 23.3179 23.2599 25 21.1207 25H3.87931C1.74009 25 0 23.3179 0 21.25V10H25ZM7.75862 18.3333H5.17241V20.8333H7.75862V18.3333ZM7.75862 13.3333H5.17241V15.8333H7.75862V13.3333ZM13.7931 18.3333H11.2069V20.8333H13.7931V18.3333ZM13.7931 13.3333H11.2069V15.8333H13.7931V13.3333ZM19.8276 18.3333H17.2414V20.8333H19.8276V18.3333ZM19.8276 13.3333H17.2414V15.8333H19.8276V13.3333Z" fill="black" fill-opacity="0.8"/>
</svg>
