<svg width="50" height="50" viewBox="0 0 50 50" fill="none" xmlns="http://www.w3.org/2000/svg">
<path fill-rule="evenodd" clip-rule="evenodd" d="M25 0C31.6716 0.118404 38.0293 2.80437 42.7048 7.4799C47.3803 12.1554 50 18.4468 50 25C50 31.5532 47.3803 37.8446 42.7048 42.5201C38.0293 47.1956 31.6716 49.8816 25 50C18.3284 49.8816 11.9707 47.1956 7.29515 42.5201C2.61963 37.8446 0 31.5532 0 25C0 18.4468 2.61963 12.1554 7.29515 7.4799C11.9707 2.80437 18.3284 0.118404 25 0ZM19.7135 33.1211L13.4794 26.9932C12.9691 26.4903 12.6826 25.8093 12.6826 25.0993C12.6826 24.3893 12.9691 23.7083 13.4794 23.2055C13.9923 22.7048 14.6861 22.4237 15.4092 22.4237C16.1324 22.4237 16.8261 22.7048 17.339 23.2055L21.7305 27.5238L32.661 16.7891C33.173 16.288 33.8665 16.0065 34.5894 16.0065C35.3123 16.0065 36.0057 16.288 36.5178 16.7891C37.0275 17.2924 37.3135 17.9732 37.3135 18.683C37.3135 19.3927 37.0275 20.0736 36.5178 20.5768L23.6562 33.2082C23.3951 33.4632 23.0842 33.664 22.7423 33.7981C22.4002 33.9324 22.0341 33.9974 21.666 33.9893C21.2978 33.9812 20.9351 33.9001 20.5995 33.7509C20.264 33.6017 19.9627 33.3875 19.7135 33.1211Z" fill="black" fill-opacity="0.75"/>
</svg>
