<svg width="18" height="18" viewBox="0 0 18 18" fill="none" xmlns="http://www.w3.org/2000/svg">
<path d="M9 17.9879C13.9706 17.9879 18 13.9612 18 8.99396C18 4.02673 13.9706 0 9 0C4.02944 0 0 4.02673 0 8.99396C0 13.9612 4.02944 17.9879 9 17.9879Z" fill="#2FDF84"/>
<path d="M1.8 8.99396C1.8 4.33069 5.352 0.496467 9.9 0.0455695C9.604 0.0159894 9.304 0 9 0C4.0296 0 0 4.0269 0 8.99396C0 13.961 4.0296 17.9879 9 17.9879C9.304 17.9879 9.604 17.9719 9.9 17.9424C5.352 17.4915 1.8 13.6572 1.8 8.99396Z" fill="#00B871"/>
<path d="M8.0992 12.1921C7.9456 12.1921 7.79199 12.1338 7.67519 12.0162L5.0752 9.41798L5.924 8.56975L8.09999 10.7443L12.876 5.9715L13.7248 6.81973L8.5248 12.0162C8.40639 12.1338 8.2528 12.1921 8.0992 12.1921Z" fill="black"/>
</svg>
