<svg width="16" height="19" viewBox="0 0 16 19" fill="none" xmlns="http://www.w3.org/2000/svg">
<path d="M11.2008 15.8334C11.2008 17.5823 9.76805 19 8.00072 19C6.23339 19 4.80078 17.5823 4.80078 15.8334C4.80078 14.0845 6.23339 12.6667 8.00072 12.6667C9.76805 12.6667 11.2008 14.0845 11.2008 15.8334Z" fill="#FFA000"/>
<path d="M7.99917 3.16658C7.55766 3.16658 7.19922 2.81202 7.19922 2.37497V0.791609C7.19922 0.354709 7.55766 0 7.99917 0C8.44082 0 8.79926 0.354709 8.79926 0.791609V2.37497C8.79926 2.81202 8.44082 3.16658 7.99917 3.16658Z" fill="#FFA000"/>
<path d="M15.5031 13.3886C14.2936 12.3768 13.6 10.8988 13.6 9.3321V7.12499C13.6 4.06915 11.0872 1.58344 7.99993 1.58344C4.91278 1.58344 2.39999 4.06915 2.39999 7.12499V9.3321C2.39999 10.8988 1.70639 12.3776 0.489549 13.3957C0.178417 13.6585 0 14.0425 0 14.4478C0 15.2118 0.627977 15.8333 1.39995 15.8333H14.5999C15.372 15.8333 16 15.2118 16 14.4478C16 14.0425 15.8216 13.6585 15.5031 13.3886Z" fill="#FFC107"/>
</svg>
