<svg width="30" height="30" viewBox="0 0 30 30" fill="none" xmlns="http://www.w3.org/2000/svg">
<path d="M14.9993 16.1487C14.138 16.1487 13.4395 16.8469 13.4395 17.7085C13.4395 18.2861 13.7544 18.7892 14.2212 19.059V20.7931H15.7774V19.059C16.2442 18.7893 16.5591 18.2861 16.5591 17.7085C16.5591 16.8469 15.8607 16.1487 14.9993 16.1487Z" fill="black" fill-opacity="0.8"/>
<path d="M15.0006 8.58496C13.6895 8.58496 12.623 9.65148 12.623 10.9625V13.4944H17.3779V10.9625C17.3778 9.65168 16.3114 8.58496 15.0006 8.58496Z" fill="black" fill-opacity="0.8"/>
<path d="M14.9998 0C6.71571 0 0 6.71589 0 14.9999C0 23.2837 6.71571 29.9998 14.9998 29.9998C23.2838 29.9998 30 23.2836 30 14.9999C30 6.71589 23.2838 0 14.9998 0ZM19.6088 22.712H10.3914C9.41796 22.712 8.62874 21.9228 8.62874 20.9491V15.2571C8.62874 14.408 9.22945 13.6989 10.0291 13.5321V10.9623C10.0291 8.22141 12.2591 5.99118 15.0003 5.99118C17.7412 5.99118 19.9712 8.22121 19.9712 10.9623V13.5321C20.7705 13.6994 21.3713 14.408 21.3713 15.2571V20.9491H21.3715C21.3715 21.9227 20.5822 22.712 19.6088 22.712Z" fill="black" fill-opacity="0.8"/>
</svg>
