<svg width="20" height="20" viewBox="0 0 20 20" fill="none" xmlns="http://www.w3.org/2000/svg">
<path fill-rule="evenodd" clip-rule="evenodd" d="M10 0C12.6687 0.0473616 15.2117 1.12175 17.0819 2.99196C18.9521 4.86216 20 7.3787 20 10C20 12.6213 18.9521 15.1378 17.0819 17.008C15.2117 18.8783 12.6687 19.9526 10 20C7.33134 19.9526 4.78828 18.8783 2.91806 17.008C1.04785 15.1378 0 12.6213 0 10C0 7.3787 1.04785 4.86216 2.91806 2.99196C4.78828 1.12175 7.33134 0.0473616 10 0ZM7.8854 13.2484L5.39176 10.7973C5.18764 10.5961 5.07304 10.3237 5.07304 10.0397C5.07304 9.75574 5.18764 9.48334 5.39176 9.28218C5.59692 9.08192 5.87442 8.9695 6.16368 8.9695C6.45294 8.9695 6.73044 9.08192 6.9356 9.28218L8.69222 11.0095L13.0644 6.71564C13.2692 6.51518 13.5466 6.40262 13.8358 6.40262C14.1249 6.40262 14.4023 6.51518 14.6071 6.71564C14.811 6.91694 14.9254 7.1893 14.9254 7.4732C14.9254 7.7571 14.811 8.02946 14.6071 8.23074L9.46248 13.2833C9.35804 13.3853 9.2337 13.4656 9.0969 13.5193C8.9601 13.573 8.81366 13.599 8.66638 13.5957C8.5191 13.5925 8.37402 13.56 8.2398 13.5003C8.1056 13.4407 7.98506 13.355 7.8854 13.2484Z" fill="#368772"/>
</svg>
