<svg width="16" height="16" viewBox="0 0 16 16" fill="none" xmlns="http://www.w3.org/2000/svg">
<path d="M8 16C12.4183 16 16 12.4183 16 8C16 3.58172 12.4183 0 8 0C3.58172 0 0 3.58172 0 8C0 12.4183 3.58172 16 8 16Z" fill="black"/>
<path fill-rule="evenodd" clip-rule="evenodd" d="M8 0C10.1349 0.0378893 12.1694 0.8974 13.6656 2.39357C15.1617 3.88973 16 5.90296 16 8C16 10.097 15.1617 12.1103 13.6656 13.6064C12.1694 15.1026 10.1349 15.9621 8 16C5.86507 15.9621 3.83062 15.1026 2.33445 13.6064C0.838282 12.1103 0 10.097 0 8C0 5.90296 0.838282 3.88973 2.33445 2.39357C3.83062 0.8974 5.86507 0.0378893 8 0ZM6.30832 10.5988L4.31341 8.63782C4.15011 8.4769 4.05843 8.25898 4.05843 8.03178C4.05843 7.80459 4.15011 7.58667 4.31341 7.42574C4.47754 7.26554 4.69954 7.1756 4.93094 7.1756C5.16235 7.1756 5.38435 7.26554 5.54848 7.42574L6.95378 8.80762L10.4515 5.37251C10.6154 5.21214 10.8373 5.1221 11.0686 5.1221C11.2999 5.1221 11.5218 5.21214 11.6857 5.37251C11.8488 5.53355 11.9403 5.75144 11.9403 5.97856C11.9403 6.20568 11.8488 6.42357 11.6857 6.58459L7.56998 10.6266C7.48643 10.7082 7.38696 10.7725 7.27752 10.8154C7.16808 10.8584 7.05093 10.8792 6.9331 10.8766C6.81528 10.874 6.69922 10.848 6.59184 10.8003C6.48448 10.7525 6.38805 10.684 6.30832 10.5988Z" fill="#FFBF00"/>
</svg>
